<?xml version="1.0" encoding="utf-8"?>
<!-- Generator: Adobe Illustrator 22.1.0, SVG Export Plug-In . SVG Version: 6.00 Build 0)  -->
<svg version="1.1" id="Layer_1" xmlns="http://www.w3.org/2000/svg" xmlns:xlink="http://www.w3.org/1999/xlink" x="0px" y="0px"
	 viewBox="0 0 310 110" style="enable-background:new 0 0 310 110;" xml:space="preserve">
<style type="text/css">
	.st0{fill:#BFC1C3;}
	.st1{fill:#FFFFFF;}
	.st2{fill:#C32032;}
	.st3{fill:#015287;}
	.st4{fill:#0378AD;}
	.st5{fill:#5E9741;}
</style>
<g id="FEMA_logo_2_">
	<polygon class="st0" points="126.9,76 133.4,76 133.4,36.7 126.9,36.7 126.9,32.8 159.7,32.8 159.7,43 155.8,43 155.8,36.7 
		141,36.7 141,54.3 152.5,54.3 152.5,48.5 156.4,48.5 156.4,65 152.5,65 152.5,58.2 141,58.2 141,76 147.5,76 147.5,79.9 
		126.9,79.9 126.9,76 	"/>
	<polygon class="st0" points="163.8,76 170.2,76 170.2,36.7 163.8,36.7 163.8,32.8 196.8,32.8 196.8,43 192.9,43 192.9,36.7 
		177.8,36.7 177.8,53.7 189.4,53.7 189.4,48 193.3,48 193.3,64.4 189.4,64.4 189.4,57.7 177.8,57.7 177.8,76 193.4,76 193.4,69.4 
		197.4,69.4 197.4,79.9 163.8,79.9 163.8,76 	"/>
	<polygon class="st0" points="200.9,76 207.4,76 207.4,36.7 200.9,36.7 200.9,32.8 216,32.8 216,36.7 231.1,68.3 246,36.7 246,32.8 
		261.4,32.8 261.4,36.7 255.1,36.7 255.1,76 261.4,76 261.4,79.9 240.9,79.9 240.9,76 247.4,76 247.4,43.7 247.3,43.7 230.3,79.9 
		228.5,79.9 211.8,44.4 211.7,44.4 211.7,76 218.1,76 218.1,79.9 200.9,79.9 200.9,76 	"/>
	<path class="st0" d="M265.5,79.9h12.3V76h-4.3l4.3-12.6h15.7L298,76h-4.5v3.9H310V76h-4.1l-16.6-44.4h-4L269.6,76h-4.1V79.9
		L265.5,79.9z M292,59.5h-12.6l6.1-17.3h0.2L292,59.5L292,59.5z"/>
	<path class="st1" d="M54.8,0.1C24.5,0.1,0,24.7,0,54.9c0,30.3,24.5,54.8,54.8,54.8c30.3,0,54.8-24.5,54.8-54.8
		C109.6,24.7,85.1,0.1,54.8,0.1L54.8,0.1z"/>
	<path class="st2" d="M88.1,35.2c-0.6,0.2-1.2,0.4-1.8,0.5c3.4,5.6,5.4,12.2,5.4,19.2c0,20.4-16.5,36.9-36.9,36.9
		C34.5,91.8,18,75.3,18,54.9c0-7.3,2.1-14.2,5.8-19.9c-0.6-0.2-1.2-0.4-1.7-0.7c-3.8,6-5.9,13-5.9,20.6c0,21.4,17.3,38.7,38.7,38.7
		c21.4,0,38.7-17.3,38.7-38.7C93.5,47.7,91.5,41,88.1,35.2L88.1,35.2z"/>
	<path class="st2" d="M33.4,24.9c6-4.3,13.4-6.9,21.4-6.9c8.9,0,17.1,3.2,23.5,8.5c0.7-0.2,1.4-0.4,2.1-0.6
		c-6.8-6-15.8-9.7-25.6-9.7c-8.8,0-16.9,2.9-23.4,7.9c0.3,0.1,0.6,0.2,0.9,0.3C32.7,24.7,33,24.8,33.4,24.9L33.4,24.9z"/>
	<path class="st0" d="M54.8,106.4c-28.4,0-51.4-23-51.4-51.4c0-28.4,23-51.4,51.4-51.4c28.4,0,51.4,23,51.4,51.4
		C106.2,83.3,83.2,106.4,54.8,106.4L54.8,106.4z M54.8,0.1C24.5,0.1,0,24.7,0,54.9c0,30.3,24.5,54.8,54.8,54.8
		c30.3,0,54.8-24.5,54.8-54.8C109.6,24.7,85.1,0.1,54.8,0.1L54.8,0.1z"/>
	<path class="st3" d="M41.6,43.9c-0.8-0.4-1.5-0.9-2.2-1.5c-2.4-2.1-2.9-4.4-2.2-7c0.4-1.5,1-2.3,0.8-3.9c-0.1-0.9-0.8-1.7-1.4-2.3
		c-1.6-1.5-3.4-2.4-6.2-3.4c-1.7-0.6-6.6-2.1-8.8-4.1c-0.5,1.5,0.6,3.4,1.8,3.6c-1.1,0.1-2.1,0.7-2.5,1.3c0.8,1,2.5,2,3.9,2
		c-0.6,0.4-1.4,1.3-1.7,1.8c1.2,0.6,3.1,1.2,4.6,1.1c-0.6,0.5-1.2,1.1-1.5,1.7c1,0.5,2.9,1.1,4.8,1.2c-0.7,0.3-1.6,1.5-2.1,2.2
		c1,0.5,3.3,0.7,4.7,0.9c-1,0.5-2,1.6-2.6,2.5c1,0.5,2.9,1,4.5,1c-0.8,0.7-1.3,1.6-1.6,2.5c1.2,0.2,2.4,0.2,3.8,0.1
		c-0.9,1.1-1.2,2.5-1.3,3.6c1.2,0,2.7-0.3,3.8-0.9c-0.2,0.9-0.2,2.1,0.2,2.9c0.5-0.1,1-0.3,1.6-0.6C41.7,47,41.6,45.3,41.6,43.9
		L41.6,43.9z"/>
	<path class="st3" d="M88.8,24.4c-2.2,2-5.7,2.5-9.3,3.7c-2.8,0.9-4.5,1.4-6.9,3.4c-0.7,0.6-1.4,1.4-1.3,2.8
		c0.1,1.6,0.3,2.3,0.4,4.5c0,1.6-0.5,2.8-1.2,3.6c-0.7,0.8-1.6,1.5-2.4,1.9c0,1.3-0.1,2.7-0.2,4.3c0.6,0.3,1.3,0.6,1.8,0.7
		c0.4-0.8,0.4-2,0.2-2.9c1.1,0.7,2.6,0.9,3.8,0.9c-0.1-1-0.5-2.5-1.3-3.6c1.4,0.2,2.7,0.2,3.8-0.1c-0.3-0.9-0.8-1.8-1.6-2.5
		c1.5,0.1,3.4-0.5,4.5-1c-0.6-0.9-1.6-2-2.6-2.5c1.4-0.1,3.7-0.4,4.7-0.9c-0.5-0.7-1.5-1.9-2.2-2.2c1.8-0.1,3.8-0.8,4.8-1.2
		c-0.3-0.6-0.9-1.2-1.5-1.7c1.7-0.1,3.4-0.4,4.6-1.1c-0.3-0.5-1-1.4-1.7-1.8C88.8,27.7,88.8,25.9,88.8,24.4L88.8,24.4z"/>
	<path class="st3" d="M73.3,28.3c-5.2-3.6-11.6-5.8-18.5-5.8c-6.3,0-12.1,1.8-17.1,4.8c1.3,1,2,2.1,2.2,3.2c0.2,1,0.3,2.1-0.3,3.8
		c-0.6,1.8-0.9,3.6,0.4,5.5c1.3,1.9,3,2.7,4.4,2.9l0,0c1.9-0.3,3.9-0.6,6-0.8l0,0c0.3-0.9,1.1-1.6,1.9-2.2c1.2-0.9,0.9-1.7,0.6-2.3
		c-0.2-0.5-0.6-0.9-1.2-1.2c-0.5-0.3-2.4-0.5-2.4,0.7c-0.3-0.4-0.6-1-0.4-1.8c0.3-1.1,2-1.3,2.4-1.3c-0.3-0.3-0.1-0.7,0.6-0.9
		c0.9-0.3,1.8-0.3,2.6-0.3c1.7,0,2,0.5,2.9,1.3c1.1,0.9,2.5,1.3,3,0.7c-0.4,0.9-1.7,1.4-2.5,1.2c0.4,1.3,0.5,2.3,0.7,3.6
		c0.1,0.6,0.2,1.6,0.3,2.4c2.3,0.2,4.7,0.5,6.7,0.9l0,0c0.8-0.2,1.7-0.7,2.5-1.6c0.7-0.9,1.4-2,1.1-4.7c-0.1-0.8-0.5-2.8-0.4-3.7
		C69.3,30.8,70.8,29.4,73.3,28.3L73.3,28.3z"/>
	<path class="st3" d="M51.8,34.1c0.3,0.2,0.5,0.3,0.6,0.2c0,0.1,0.1,0.1,0.1,0.2c0.1,0.1,0.1,0.1,0.1,0.2c0.1-0.1,0.5-0.2,0.9-0.3
		c0.4-0.1,0.9-0.3,0.9-0.3C52.8,33.8,52.6,34.2,51.8,34.1L51.8,34.1z"/>
	<path class="st4" d="M53.9,59.7l-0.6-0.3l-0.4-1.1l-0.9-0.4l-1.1-0.9l-0.6,0.7l-0.9,0.2l-0.5,0.8L48,59.5L47,60l-0.7,1.2l-0.4,0.5
		l-0.7,0.5l-0.4-0.4l-0.4,0.4l-0.5,1c-0.3-0.7-0.4-1.3-0.5-2.4c-0.2-2.1-0.3-4.8-0.5-7.5c3.5-0.8,7.9-1.3,11.6-1.3v8.3
		C54.2,60.2,54.1,60.1,53.9,59.7L53.9,59.7z"/>
	<path class="st5" d="M54.4,63.7H44c0.2,0.3,0.3,0.6,0.5,0.9c0.7,1.1,1.8,1.8,3.2,2.2c1.8,0.6,3,0.9,3.9,1.2l1,0.3
		c0.8,0.3,1.4,0.6,1.8,1V63.7L54.4,63.7z"/>
	<path class="st3" d="M65.4,59.7c0.3-0.2,0.6-0.5,1-0.7c0.1-1,0.1-2,0.2-3.1c-0.1,0.1-0.2,0.2-0.4,0.3c-0.5,0.4-1.1,0.9-2.2,0.9
		c-1,0-1.7-0.4-2.2-0.7c-0.4-0.3-0.8-0.5-1.3-0.5c-0.6,0-1,0.3-1.6,0.6c-0.5,0.3-1.2,0.7-1.9,0.7c-0.8,0-1.4-0.2-1.8-0.5v2.9
		c0.1,0.1,0.2,0.1,0.3,0.2c0.5,0.3,0.9,0.5,1.5,0.5c0.4,0,0.8-0.2,1.2-0.5c0.6-0.4,1.3-0.8,2.3-0.8c0.9,0,1.5,0.4,2,0.7
		c0.5,0.3,0.9,0.5,1.5,0.5C64.6,60.3,65,60,65.4,59.7L65.4,59.7z"/>
	<path class="st3" d="M57,66.3c-0.8,0-1.4-0.2-1.8-0.5v3.6c0.4-0.4,1-0.8,1.8-1l1-0.3c0.9-0.3,2-0.6,3.9-1.2c0.5-0.2,1-0.4,1.5-0.7
		c-0.7-0.1-1.2-0.4-1.6-0.7C61.4,65.2,61,65,60.5,65c-0.6,0-1,0.3-1.6,0.6C58.4,66,57.8,66.3,57,66.3L57,66.3z"/>
	<path class="st4" d="M65.4,55.2c0.3-0.3,0.7-0.6,1.3-0.7c0-0.4,0-0.7,0.1-1.1c-3.5-0.8-7.9-1.2-11.6-1.3v3.1
		c0.1,0.1,0.2,0.1,0.3,0.2c0.5,0.3,0.9,0.5,1.5,0.5c0.4,0,0.8-0.2,1.2-0.5c0.6-0.4,1.3-0.8,2.3-0.8c0.9,0,1.5,0.4,2,0.7
		c0.5,0.3,0.9,0.5,1.5,0.5C64.6,55.8,65,55.5,65.4,55.2L65.4,55.2z"/>
	<path class="st4" d="M55.2,61.2v3c0.1,0.1,0.2,0.1,0.3,0.2C56,64.7,56.4,65,57,65c0.4,0,0.8-0.2,1.2-0.5c0.6-0.4,1.3-0.8,2.3-0.8
		c0.9,0,1.5,0.4,2,0.7c0.5,0.3,0.9,0.5,1.5,0.5c0.5,0,0.8-0.2,1.1-0.4c0.7-1,1.1-2.2,1.1-3.6c0-0.1,0-0.1,0-0.2c0,0-0.1,0-0.1,0.1
		c-0.5,0.4-1.1,0.9-2.2,0.9c-1,0-1.7-0.4-2.2-0.7c-0.4-0.3-0.8-0.5-1.3-0.5c-0.6,0-1,0.3-1.6,0.6c-0.5,0.3-1.2,0.7-1.9,0.7
		C56.2,61.7,55.7,61.5,55.2,61.2L55.2,61.2z"/>
	<path class="st3" d="M42.8,52.5c-0.2-3-0.3-6.1-0.4-8.5c3.7-0.8,8.6-1.4,12.4-1.4c3.8,0,8.7,0.5,12.4,1.4c-0.1,2.4-0.2,5.5-0.4,8.5
		c-3.5-0.7-8.1-1.3-12-1.3C50.9,51.3,46.3,51.8,42.8,52.5L42.8,52.5z"/>
	<polygon class="st1" points="45.2,46 45.4,45.4 44.8,45.1 45.4,45 45.5,44.4 45.8,45 46.4,44.9 45.9,45.3 46.2,45.9 45.7,45.5 
		45.2,46 	"/>
	<polygon class="st1" points="49.3,45.5 48.7,45.1 48.3,45.6 48.4,45 47.8,44.7 48.5,44.6 48.6,44 48.8,44.6 49.5,44.5 49,44.9 
		49.3,45.5 	"/>
	<polygon class="st1" points="52.3,45.3 51.8,44.9 51.3,45.3 51.5,44.7 50.9,44.4 51.6,44.4 51.7,43.7 51.9,44.3 52.6,44.3 52,44.7 
		52.3,45.3 	"/>
	<polygon class="st1" points="55.3,45.2 54.8,44.8 54.3,45.2 54.5,44.6 54,44.2 54.7,44.3 54.8,43.6 55,44.3 55.7,44.2 55.1,44.6 
		55.3,45.2 	"/>
	<polygon class="st1" points="64,45.6 63.4,45.9 63.7,45.3 63.2,44.9 63.9,45 64.2,44.4 64.2,45.1 64.9,45.1 64.3,45.4 64.4,46 
		64,45.6 	"/>
	<polygon class="st1" points="60.7,44.9 60.2,44.5 60.8,44.6 61.1,44 61.2,44.6 61.8,44.7 61.2,45 61.4,45.6 60.9,45.1 60.4,45.5 
		60.7,44.9 	"/>
	<polygon class="st1" points="57.6,44.7 57.1,44.3 57.7,44.3 58,43.7 58.1,44.4 58.8,44.4 58.2,44.7 58.4,45.3 57.9,44.9 57.3,45.3 
		57.6,44.7 	"/>
	<polygon class="st1" points="45.7,51 45.8,50.3 45.2,50 45.9,50 45.9,49.3 46.2,49.9 46.9,49.8 46.4,50.2 46.7,50.8 46.1,50.5 
		45.7,51 	"/>
	<polygon class="st1" points="49.6,50.5 49.1,50.1 48.6,50.6 48.8,49.9 48.2,49.6 48.8,49.6 48.9,48.9 49.2,49.5 49.8,49.4 
		49.3,49.9 49.6,50.5 	"/>
	<polygon class="st1" points="52.5,50.2 52,49.9 51.5,50.3 51.7,49.7 51.1,49.3 51.8,49.3 51.9,48.7 52.1,49.3 52.8,49.2 52.3,49.6 
		52.5,50.2 	"/>
	<polygon class="st1" points="55.4,50.2 54.9,49.8 54.4,50.2 54.6,49.6 54.1,49.2 54.8,49.2 54.9,48.6 55.1,49.2 55.8,49.2 
		55.2,49.6 55.4,50.2 	"/>
	<polygon class="st1" points="63.7,50.5 63.2,50.8 63.5,50.3 63,49.8 63.6,49.9 63.9,49.3 64,50 64.6,50.1 64,50.3 64.2,51 
		63.7,50.5 	"/>
	<polygon class="st1" points="60.5,49.9 60,49.5 60.7,49.6 60.9,48.9 61,49.6 61.7,49.6 61.1,49.9 61.3,50.6 60.8,50.1 60.2,50.5 
		60.5,49.9 	"/>
	<polygon class="st1" points="57.6,49.6 57.1,49.2 57.7,49.3 57.9,48.7 58.1,49.3 58.7,49.4 58.2,49.7 58.4,50.3 57.9,49.9 
		57.3,50.3 57.6,49.6 	"/>
	<polygon class="st1" points="47.1,48.1 47.3,47.4 46.7,47.1 47.3,47.1 47.4,46.4 47.7,47 48.3,46.9 47.8,47.3 48.1,47.9 47.6,47.6 
		47.1,48.1 	"/>
	<polygon class="st1" points="44.2,48.5 44.4,47.9 43.7,47.6 44.4,47.5 44.5,46.9 44.7,47.5 45.4,47.3 44.9,47.8 45.2,48.3 44.7,48 
		44.2,48.5 	"/>
	<polygon class="st1" points="51,47.6 50.5,47.3 50,47.7 50.2,47.1 49.6,46.8 50.3,46.7 50.4,46.1 50.6,46.7 51.3,46.6 50.8,47 
		51,47.6 	"/>
	<polygon class="st1" points="54,47.5 53.4,47.1 52.9,47.5 53.1,46.9 52.6,46.6 53.2,46.6 53.4,45.9 53.6,46.6 54.2,46.5 53.7,46.9 
		54,47.5 	"/>
	<polygon class="st1" points="56.9,47.5 56.4,47.1 55.8,47.5 56.1,46.9 55.5,46.5 56.2,46.6 56.4,45.9 56.5,46.6 57.2,46.6 
		56.6,46.9 56.9,47.5 	"/>
	<polygon class="st1" points="65.1,48 64.5,48.4 64.9,47.8 64.4,47.3 65.1,47.5 65.3,46.9 65.4,47.5 66,47.6 65.4,47.9 65.6,48.5 
		65.1,48 	"/>
	<polygon class="st1" points="62,47.4 61.5,46.9 62.1,47 62.4,46.4 62.4,47.1 63.1,47.1 62.5,47.4 62.7,48.1 62.2,47.6 61.6,47.9 
		62,47.4 	"/>
	<polygon class="st1" points="59,47.1 58.5,46.6 59.2,46.7 59.4,46.1 59.5,46.8 60.2,46.8 59.6,47.1 59.8,47.7 59.3,47.3 58.7,47.7 
		59,47.1 	"/>
	<path class="st3" d="M97.7,40.4c1.9-0.8,2.8-3,2-4.8c-0.8-1.8-3-2.6-4.9-1.8c-1.9,0.8-2.8,3-2,4.8C93.6,40.5,95.8,41.3,97.7,40.4
		L97.7,40.4z M95.4,35.2c1.5-0.7,3.2-0.4,3.7,0.6c0.4,1-0.5,2.5-2,3.1c-1.5,0.7-3.3,0.4-3.7-0.6C93,37.4,93.9,35.9,95.4,35.2
		L95.4,35.2z"/>
	<polygon class="st3" points="95,45.4 94.3,42.5 94.8,42.4 95,43.2 101.1,41.7 100.9,40.9 101.3,40.8 102.4,45.1 102.7,45 
		102.9,45.6 101.2,46 101,45.5 101.8,45.3 101.2,43.1 98.7,43.7 99.2,45.4 99.9,45.2 100,45.8 98,46.3 97.8,45.8 98.5,45.6 
		98.1,43.9 95.3,44.6 95.5,45.3 95,45.4 	"/>
	<path class="st3" d="M9.8,37.7l-0.3,0.9l3.9,1.2c1.2,0.4,1.8,1,2,2c0.1,0.5,0,1.1-0.1,1.6c-0.5,1.7-1.8,2.5-3.2,2.1l-4.2-1.3
		L7.6,45l-0.4-0.1L8,41.9L8.5,42l-0.2,0.8l3.9,1.2c1.1,0.3,1.6,0.3,2-0.2c0.2-0.2,0.4-0.5,0.5-0.8c0.4-1.3-0.2-2.2-1.4-2.6l-3.9-1.2
		l-0.3,0.9L8.6,40l0.7-2.4L9.8,37.7L9.8,37.7z"/>
	<path class="st3" d="M16.7,39.4c-0.2,0.4-0.6,0.5-1,0.4c-0.4-0.2-0.5-0.6-0.4-1c0.2-0.4,0.6-0.5,1-0.4C16.7,38.6,16.9,39,16.7,39.4
		L16.7,39.4z"/>
	<path class="st3" d="M18.1,36.3l-0.3,0.5l-1.7-1l0.3-0.5l0.7,0.4c0.6-0.2,0.9-0.5,1.2-1c0.3-0.6,0.2-1.2-0.3-1.5
		c-0.4-0.2-0.9-0.1-2,0.4c-1.1,0.6-1.3,0.7-1.7,0.7c-0.4,0.1-0.9,0-1.3-0.2c-1-0.6-1.3-1.8-0.7-2.9c0.2-0.4,0.4-0.6,0.8-0.9
		l-0.3-0.2l0.3-0.5l1.6,0.9l-0.3,0.5l-0.7-0.4c-0.5,0.3-0.7,0.5-0.9,0.8c-0.3,0.5-0.1,1.1,0.3,1.3c0.4,0.2,0.7,0.1,1.8-0.5
		c0.5-0.3,0.9-0.5,1-0.5c0.3-0.1,0.6-0.2,0.9-0.2c0.4,0,0.8,0.1,1.1,0.3c1.1,0.6,1.4,1.8,0.8,2.9c-0.3,0.6-0.7,0.9-1.2,1.2
		L18.1,36.3L18.1,36.3z"/>
	<path class="st3" d="M20.9,31.3c0,0.4-0.3,0.7-0.7,0.7c-0.4,0-0.7-0.3-0.7-0.7c0-0.4,0.3-0.7,0.7-0.7
		C20.6,30.6,20.9,30.9,20.9,31.3L20.9,31.3z"/>
	<polygon class="st3" points="37.8,17.3 33.2,19.7 33,19.2 33.7,18.9 30.8,13.3 30.1,13.6 29.9,13.2 33.9,11.2 33.8,10.9 34.3,10.6 
		35.1,12.2 34.6,12.4 34.2,11.7 32.2,12.8 33.4,15.1 34.9,14.3 34.6,13.6 35.1,13.3 36.1,15.3 35.6,15.5 35.2,14.9 33.7,15.7 
		34.9,18.1 37,17 36.6,16.2 37.2,16 37.8,17.3 	"/>
	<path class="st3" d="M42.3,15.7l-3,1l-0.1-0.4l0.8-0.3l-2-6l-0.8,0.3L37,9.8l3.1-1c1.3-0.4,2.4,0.1,2.8,1.3
		c0.4,1.1-0.3,2.4-1.5,2.8c-0.2,0.1-0.3,0.1-0.6,0.1l-0.2-0.5c0.1,0,0.2,0,0.3-0.1c0.7-0.2,0.9-0.9,0.6-1.8c-0.3-1-0.9-1.4-1.6-1.1
		l-0.6,0.2l1.9,5.8l0.9-0.3L42.3,15.7L42.3,15.7z"/>
	<path class="st3" d="M51.1,13.2l-0.5,0.1l-3.9-6.4L46.2,7l-1.6,7.4l-0.7,0.1l0.1,0.5l2.2-0.4l-0.1-0.5l-0.9,0.1l0.4-1.9l2.6-0.5
		l1,1.6l-0.8,0.1l0.1,0.5l2.6-0.5L51.1,13.2L51.1,13.2z M45.8,11.7l0.6-2.9l1.5,2.5L45.8,11.7L45.8,11.7z"/>
	<path class="st3" d="M58.7,13.2l-0.4,0c-0.2,0-0.4-0.1-0.6-0.5l-1.5-2.4c1-0.3,1.5-0.9,1.5-1.9c0-0.6-0.2-1-0.5-1.4
		c-0.4-0.4-0.9-0.5-1.9-0.5l-3.2,0v0.5l0.8,0l0,6.3l-0.8,0l0,0.5l3.1,0v-0.5l-0.8,0l0-2.8l0.3,0l1.6,2.6c0.4,0.6,0.5,0.6,1.1,0.6
		l1.4,0L58.7,13.2L58.7,13.2z M54.3,7.1l0.7,0c0.8,0,1.2,0.5,1.2,1.4c0,0.9-0.5,1.5-1.3,1.5l-0.6,0L54.3,7.1L54.3,7.1z"/>
	<polygon class="st3" points="63.6,14.6 60.2,14 60.2,13.5 61.3,13.7 62.3,7.7 60.4,7.4 60.3,8.3 59.7,8.2 60,6.3 60.6,6.4 
		60.5,6.7 65.6,7.6 65.7,7.3 66.3,7.4 66,9.2 65.4,9.1 65.5,8.2 63.7,7.9 62.7,13.9 63.7,14.1 63.6,14.6 	"/>
	<polygon class="st3" points="73.8,18 70.8,16.9 71,16.4 71.8,16.8 73.5,12.4 69.4,16.4 68.8,10.6 67.1,14.9 68,15.3 67.8,15.7 
		65.5,14.8 65.6,14.4 66.5,14.7 68.8,8.8 67.9,8.5 68.1,8.1 69.9,8.8 70.5,14.4 74.4,10.5 76.4,11.3 76.3,11.7 75.4,11.4 73.1,17.3 
		74,17.6 73.8,18 	"/>
	<polygon class="st3" points="79.2,21.5 74.8,18.7 75,18.3 75.7,18.8 79.1,13.5 78.4,13 78.7,12.6 82.4,15 82.6,14.8 83.1,15.1 
		82.2,16.6 81.7,16.3 82.1,15.6 80.2,14.4 78.8,16.5 80.3,17.5 80.7,16.9 81.2,17.2 80,19 79.5,18.7 79.9,18 78.5,17.1 77,19.4 
		79,20.6 79.4,20 79.9,20.3 79.2,21.5 	"/>
	<path class="st3" d="M29.3,21.8l-0.7,0.5L25,17.5l0.7-0.5c1-0.8,2.7-0.3,3.7,1C30.5,19.3,30.4,21,29.3,21.8L29.3,21.8z M30.7,17
		c-1.2-1.6-3.4-1.9-5.1-0.7l-2.7,2l0.3,0.4l0.7-0.5l3.7,5.1c0.2,0.1,0.4,0.1,0.5,0.2l1.8-1.3c0.9-0.6,1.3-1.3,1.5-2.3
		C31.5,18.8,31.3,17.8,30.7,17L30.7,17z"/>
	<path class="st3" d="M88.5,20l-0.3,0.3l0.6,0.6l-3.1,3.4l0.8-6.1l-1.6-1.5l-0.3,0.3l0.6,0.5L85,18.3l-3.9,4.2l-0.7-0.6l-0.3,0.3
		l1.8,1.7l0.3-0.3L81.7,23l3.2-3.5L84.2,25c0.7-0.2,1.4-0.4,2.1-0.6c0.1,0,0.1,0,0.2-0.1l2.7-3L90,22l0.3-0.3L88.5,20L88.5,20z"/>
	<path class="st3" d="M95.8,27.9l-0.2,0.2L92.4,24l0.2-0.2l-0.4-0.5l-1.5,1.1l0.4,0.5l0.7-0.5l1.1,1.5l-4.9,3.7L88,29.3
		c-0.1,0.1-0.3,0.1-0.4,0.2l1.8,2.4l0.4-0.3l-0.6-0.8l4.9-3.7l1.1,1.5l-0.7,0.6l0.4,0.5l1.5-1.1L95.8,27.9L95.8,27.9z"/>
	<path class="st3" d="M63.9,102.9l-0.6,0.1l-0.4-1.9l0.6-0.1l0.2,0.8c0.6,0.3,1,0.3,1.5,0.2c0.7-0.1,1.1-0.6,0.9-1.2
		c-0.1-0.5-0.5-0.8-1.6-1.2c-1.2-0.4-1.3-0.5-1.7-0.8c-0.3-0.3-0.6-0.6-0.7-1.1c-0.3-1.2,0.4-2.1,1.7-2.4c0.4-0.1,0.8-0.1,1.2,0
		L64.9,95l0.6-0.1l0.4,1.8l-0.6,0.1l-0.2-0.7c-0.5-0.2-0.8-0.2-1.2-0.1c-0.6,0.1-0.9,0.6-0.8,1.1c0.1,0.4,0.4,0.6,1.6,1.1
		c0.6,0.2,0.9,0.3,1,0.4c0.3,0.1,0.6,0.3,0.8,0.6c0.3,0.3,0.4,0.6,0.5,1c0.3,1.2-0.4,2.3-1.7,2.5c-0.6,0.1-1.1,0.1-1.6-0.1
		L63.9,102.9L63.9,102.9z"/>
	<polygon class="st3" points="75,99.5 70.1,101.4 70,100.9 70.7,100.6 68.4,94.8 67.7,95.1 67.5,94.6 71.7,93 71.6,92.7 72.1,92.5 
		72.8,94.1 72.2,94.3 71.9,93.6 69.8,94.4 70.8,96.8 72.4,96.2 72.1,95.5 72.7,95.3 73.5,97.3 72.9,97.5 72.6,96.8 71,97.4 72,99.9 
		74.2,99.1 73.9,98.3 74.4,98.1 75,99.5 	"/>
	<path class="st3" d="M82.3,95c-0.6,0.8-1.1,1.2-1.8,1.6c-2,1.2-4.2,0.7-5.3-1.1c-1.1-1.8-0.5-4.1,1.3-5.2c0.6-0.4,1.1-0.5,1.8-0.6
		l-0.2-0.4l0.5-0.3l1,1.7l-0.5,0.3l-0.4-0.6c-0.8-0.1-1.1,0-1.6,0.3c-1.3,0.8-1.5,2.4-0.6,4c0.9,1.5,2.6,2.1,3.9,1.3
		c0.5-0.3,0.7-0.6,1-1.1L81,94.1l0.5-0.3L82.3,95L82.3,95z"/>
	<path class="st3" d="M85.5,83.7l-0.7,0.6l2.8,3c0.8,0.9,1,1.8,0.6,2.7c-0.2,0.5-0.5,0.9-0.9,1.3c-1.3,1.2-2.8,1.2-3.8,0.1l-3-3.3
		l-0.6,0.6l-0.3-0.3l2.3-2.1l0.3,0.3l-0.6,0.6l2.7,3c0.7,0.8,1.2,1.1,1.8,0.9c0.3-0.1,0.6-0.2,0.8-0.5c1-0.9,1-2,0.1-3l-2.7-3
		l-0.7,0.6l-0.3-0.3l1.9-1.7L85.5,83.7L85.5,83.7z"/>
	<polygon class="st3" points="97.8,77.4 96.4,80.1 96,79.8 96.3,79.1 90.8,76.1 90.4,76.8 90,76.6 91.5,73.9 91.9,74.2 91.5,74.9 
		97,77.9 97.4,77.2 97.8,77.4 	"/>
	<polygon class="st3" points="100.6,70.8 99.4,74.1 98.9,74 99.3,73 93.6,70.8 92.9,72.6 93.8,72.9 93.6,73.5 91.8,72.8 92,72.3 
		92.3,72.4 94.2,67.5 93.9,67.4 94.1,66.9 95.8,67.5 95.6,68.1 94.8,67.7 94.1,69.5 99.8,71.7 100.2,70.7 100.6,70.8 	"/>
	<polygon class="st3" points="102.5,62.8 102,65.8 101.5,65.7 101.7,64.9 98.7,64.3 95.1,65.8 94.9,66.5 94.5,66.4 95.1,63.4 
		95.5,63.5 95.4,64.3 98,63.2 95.9,61.3 95.8,62.3 95.3,62.2 95.8,59.7 96.3,59.8 96.1,60.5 98.7,62.9 101.9,63.5 102.1,62.7 
		102.5,62.8 	"/>
	<path class="st3" d="M87.6,81.2l0.4-0.6c0.5-0.6,1.1-0.7,1.8-0.2c0.7,0.5,0.9,1.3,0.4,1.9l-0.4,0.5L87.6,81.2L87.6,81.2z
		 M95.2,81.3l-0.3,0.4c-0.1,0.2-0.3,0.2-0.7,0.2l-2.8-0.2c0.4-1,0.1-1.8-0.6-2.4c-0.5-0.3-0.9-0.5-1.5-0.4c-0.6,0.1-1,0.4-1.5,1.2
		l-1.9,2.6l0.4,0.3l0.5-0.7l5.1,3.8l-0.5,0.7l0.4,0.3l1.8-2.5L93,84.2l-0.5,0.7l-2.2-1.6l0.2-0.2l3,0.2c0.7,0,0.8,0,1.2-0.5l0.8-1.1
		L95.2,81.3L95.2,81.3z"/>
	<polygon class="st3" points="8.6,69.6 7.9,66.6 8.3,66.5 8.5,67.3 11.3,66.6 10.5,63.1 7.7,63.8 7.9,64.6 7.4,64.7 6.7,61.8 
		7.2,61.7 7.4,62.5 13.5,61 13.3,60.2 13.7,60 14.5,63 14,63.1 13.8,62.3 11.1,63 12,66.4 14.7,65.8 14.5,65 14.9,64.9 15.6,67.8 
		15.2,68 15,67.1 8.9,68.6 9.1,69.5 8.6,69.6 	"/>
	<path class="st3" d="M15.1,76.4c1.9-0.9,2.7-3,1.9-4.8c-0.8-1.8-3-2.6-4.9-1.7c-1.9,0.9-2.7,3-1.9,4.8
		C11.1,76.5,13.2,77.3,15.1,76.4L15.1,76.4z M12.8,71.2c1.5-0.7,3.2-0.4,3.7,0.6c0.5,1-0.5,2.5-2,3.2c-1.5,0.7-3.2,0.4-3.7-0.6
		C10.4,73.4,11.3,71.9,12.8,71.2L12.8,71.2z"/>
	<polygon class="st3" points="17.9,86.8 16,84.1 16.4,83.9 16.9,84.6 20.7,81.8 15.1,83 17.7,77.8 14,80.5 14.5,81.3 14.1,81.6 
		12.7,79.5 13,79.2 13.6,80 18.7,76.3 18.1,75.5 18.5,75.3 19.6,76.8 17,81.9 22.5,80.8 23.8,82.5 23.4,82.8 22.8,82.1 17.8,85.8 
		18.3,86.5 17.9,86.8 	"/>
	<polygon class="st3" points="23.6,92.4 19.8,88.8 20.1,88.5 20.7,89.1 25,84.4 24.4,83.9 24.7,83.5 28,86.6 28.2,86.4 28.6,86.8 
		27.4,88 27,87.6 27.5,87.1 25.9,85.5 24.1,87.4 25.4,88.6 25.9,88.1 26.4,88.4 24.9,90 24.5,89.6 25,89.1 23.7,87.9 21.9,89.9 
		23.6,91.5 24.2,90.9 24.6,91.3 23.6,92.4 	"/>
	<polygon class="st3" points="30.1,96.8 25.8,93.9 26.1,93.6 26.8,94 30.3,88.8 29.6,88.3 29.9,88 32.4,89.7 32.1,90 31.5,89.6 
		28,94.7 30,96 30.4,95.3 30.9,95.6 30.1,96.8 	"/>
	<path class="st3" d="M38,100.2l-0.4-0.2l0.4-7.5l-0.6-0.3l-5.5,5.2l-0.6-0.3l-0.2,0.4l2.1,0.9l0.2-0.4l-0.8-0.4l1.4-1.3l2.4,1.1
		l-0.1,1.9l-0.7-0.3l-0.2,0.4l2.4,1.1L38,100.2L38,100.2z M34.5,95.9l2.1-2l-0.2,2.9L34.5,95.9L34.5,95.9z"/>
	<polygon class="st3" points="45.5,102.7 44.8,102.6 42.3,96.5 41.2,101.1 42.1,101.3 42,101.8 39.6,101.2 39.7,100.7 40.6,100.9 
		41.9,95.4 41.7,94.7 40.9,94.6 41,94.1 43.1,94.6 45.4,100.3 46.5,95.9 45.6,95.7 45.7,95.2 48.1,95.8 48,96.3 47.1,96.1 
		45.5,102.7 	"/>
	<path class="st3" d="M54.6,99.7c-0.1,1.7-1.1,3-2.5,2.9l-0.9,0l0.2-6l0.9,0C53.6,96.7,54.7,98.1,54.6,99.7L54.6,99.7z M52.6,96.1
		L49.2,96l0,0.5l0.8,0l-0.2,6.3h0l-0.8,0l0,0.5l3.4,0.1l0,0h0c1.1,0,1.9-0.2,2.6-0.9c0.8-0.7,1.2-1.6,1.2-2.6
		C56.2,97.8,54.7,96.1,52.6,96.1L52.6,96.1z"/>
	<path class="st3" d="M89.7,59.4L87,60.3l0.6,0.2l-0.9,0.6c0.1-0.5,0.2-1.1,0.3-1.7l1.5-1.2l0,0.7l1.7-2.3l-2.6,1.2l0.6,0.2l-1.2,1
		c0.1-0.7,0.1-1.4,0.2-2l1.5-1.6l0.1,0.6l1.3-2.5l-2.4,1.5l0.7,0.1l-1.2,1.2c0-0.4,0-0.9,0-1.3c0-3.2-0.5-6.4-1.4-9.3
		c-1.5,0.1-2.9-0.3-3.6-0.5c1.9,1.1,2.5,2.3,2.8,3.7c-1.5,0.3-3.5-0.2-4.6-1c1.1,0.9,1.8,2.4,1.8,3.9c-1.6,0.1-3-0.6-4-1.7
		c0.7,0.8,1.5,2.7,1.3,4c-1.3-0.1-2.8-1-3.6-2c0.7,1.5,1,2.7,0.9,4.1c-1.3-0.2-2.3-0.6-3.4-1.7c0.6,1.4,0.8,2.8,0.6,3.9
		c-1.5-0.5-2.5-1.1-3.3-2.5c0.4,1.2,0.7,2.9,0.4,3.8c-1.3-0.4-2.1-1.1-2.7-2.4c0.6,1.4,0.6,2.9,0.3,3.8c-0.5-0.1-1.2-0.5-1.6-0.9
		c0,0.2,0,0.5,0,0.7c-0.1,0.9-0.2,1.8-0.5,2.6c0.1,0.1,0.3,0.4,0.4,0.4c0.7,0.7,1.6,1.4,2.3,1.6c-0.3,0-0.7,0.3-1.2,0.4
		c0.5,0.5,1.4,0.7,2,1.3c-0.5,0.1-0.6,0.4-1.1,0.3c1.1,0.8,2,0.9,2.6,0.9c0.2,0,0.9,0.1,1.4,0c0.6-0.1,1.1,0.1,1.4,0.3l5.9-11.9
		l-0.6,0.1l1.8-2.1l-0.6,2.7L80.6,57l-5.9,11.9c0.1,0.1,0.2,0.3,0.2,0.5c0,0,0,0,0,0l0.2-0.2l0,0l9.5-7.5L84,61.5l2.6-1.1l-1.7,2.2
		l0-0.7l-9.4,7.4c0.3,0,0.5,0.1,0.5,0.2c0.2,0.3,0.1,0.4,0,0.8c-0.1,0.4-0.2,0.6-0.5,0.6c-0.1,0-0.2,0-0.4,0
		c0.1,0.1,0.1,0.1,0.2,0.2c0,0.1,0.1,0.3-0.2,0.7c-0.3,0.3-0.6,0.5-0.8,0.3c-0.1-0.1-0.2-0.2-0.2-0.2c0,0.1,0.1,0.2,0.1,0.3
		c0.1,0.4-0.2,0.5-0.5,0.6c-0.6,0.2-0.9,0.1-1.1-0.1c-0.3-0.5-0.1-1.1,0.1-1.2c-0.1,0.2-0.1,0.4,0,0.6c0,0.2,0.1,0.5,0.5,0.5
		c0.2,0,0.5-0.1,0.7-0.2c0.1-0.1,0.2-0.3,0.1-0.6c0-0.1-0.1-0.3-0.2-0.4c0.2,0.1,0.3,0.2,0.5,0.3c0.2,0.1,0.4,0.2,0.6,0
		c0.2-0.2,0.3-0.3,0.4-0.5c0.2-0.3-0.3-0.6-0.5-0.7c0.4,0,0.5,0.2,0.9,0.1c0.4-0.1,0.5-0.6,0.5-0.8c0-0.1-0.2-0.3-0.4-0.3
		c-0.1,0-0.3,0-0.5,0c0,0,0,0.1,0,0.1c0,0.2-0.1,0.4-0.4,0.5c-0.2,0-0.3,0.1-0.1-0.1c0.2-0.1,0.3-0.8-0.1-1.1
		c-0.3-0.2-0.6-0.4-1.1-0.3c-0.5,0-1.2,0.1-1.6,0c-0.3,0-0.5,0.4-0.6,0.6c-0.1,0.4-0.3,1-0.9,0.7c-0.8-0.4-1.9-0.4-3.1-0.9
		c0.2,0.4,0.1,0.7,0.3,1.1c-1.1-0.3-1.4-0.8-2.5-1.2c0.2,0.4,0.1,0.7,0.4,1.1c-0.9-0.2-1.7-1-3-1.3c0,0-0.1,0-0.1,0
		c-0.5,0.1-0.9,0.3-1.2,0.4c0.9,1,1.6,2.2,1.9,3.7c0,0-0.6,0-1.5-0.3c0.3,0.8,0.4,1.7,0.4,2.6c0,0-0.7-0.1-1.7-0.7
		c0.1,0.9,0.1,1.8-0.1,2.7c0,0-0.8-0.3-1.8-1.3c-0.1,0.9-0.3,1.8-0.7,2.7c0,0-0.7-0.5-1.5-1.7c-0.3,0.9-0.7,1.8-1.3,2.7
		c0,0-0.8-0.8-1.3-2.5c-0.7,1.1-1.4,1.6-1.4,1.6c-0.4-0.9-0.6-1.8-0.7-2.7c-0.9,1-1.8,1.3-1.8,1.3c-0.2-0.9-0.2-1.9-0.1-2.7
		c-1,0.6-1.7,0.7-1.7,0.7c0-0.9,0.2-1.8,0.4-2.6c-0.9,0.3-1.5,0.3-1.5,0.3c0.3-1.5,1.3-3.1,2-3.8h0c-0.3-0.1-0.7-0.2-1.1-0.3
		c0,0-0.1,0-0.1,0c-1.2,0.3-2.1,1.1-3,1.3c0.2-0.4,0.2-0.7,0.4-1.1c-1.1,0.4-1.3,0.9-2.5,1.2c0.2-0.4,0.1-0.8,0.3-1.1
		c-1,0.5-2.4,0.9-3.1,1c-0.7,0.1-0.7-0.9-1-1.1C38.5,69,37.9,69,37.7,69c-0.3,0.1-1,0-1.5,0c-0.5,0-0.8,0.1-1.1,0.3
		c-0.4,0.3-0.2,1,0,1.1c0.2,0.1,0.1,0.1-0.1,0.1c-0.3-0.2-0.4-0.4-0.4-0.5c0,0,0,0,0-0.1c-0.1,0-0.4,0-0.6,0c-0.2,0-0.4,0.2-0.4,0.3
		c0,0.2,0.1,0.8,0.4,0.8c0.4,0.1,0.4-0.1,0.9-0.1c-0.3,0.1-0.7,0.4-0.5,0.7c0.1,0.1,0.2,0.3,0.3,0.5c0.1,0.2,0.4,0.1,0.6,0
		c0.2-0.1,0.3-0.2,0.5-0.3c-0.1,0.1-0.2,0.3-0.2,0.4c-0.1,0.2-0.1,0.5,0.1,0.6c0.2,0.1,0.5,0.2,0.7,0.2c0.3,0,0.4-0.3,0.5-0.4
		c0-0.2,0.1-0.4,0-0.6c0.2,0.1,0.4,0.7,0,1.2c-0.2,0.2-0.5,0.3-1.1,0.1c-0.3-0.1-0.6-0.3-0.5-0.6c0-0.1,0.1-0.2,0.1-0.3
		c-0.1,0.1-0.1,0.2-0.3,0.2c-0.2,0.1-0.5,0-0.8-0.4c-0.3-0.4-0.3-0.6-0.2-0.7c0-0.1,0.1-0.2,0.2-0.2c-0.2,0.1-0.3,0-0.4,0
		c-0.3,0-0.4-0.2-0.5-0.6c-0.1-0.4-0.2-0.6,0-0.8c0.1-0.2,0.8-0.3,1.2-0.2c0-0.2,0.1-0.5,0.3-0.7c0.3-0.1,0.9-0.5,1.6-0.4
		c0.5,0.1,1.2,0,1.4,0c0.2,0,1.8-0.3,2.9-1.1c-0.6,0.1-0.7-0.3-1.1-0.3c0.6-0.6,1.6-0.7,2-1.3c-0.4,0-0.8-0.4-1.1-0.4
		c0.9-0.5,1.6-0.8,2.2-1.5c0,0,0.3-0.3,0.4-0.4c-0.3-0.8-0.5-1.7-0.5-2.6c0-0.2,0-0.5,0-0.7c-0.2,0.3-0.7,0.5-1.5,0.8
		c-0.4-0.9-0.2-2.5,0.3-3.8c-0.7,1.3-1.4,2.1-2.7,2.5c-0.3-0.9-0.1-2.6,0.3-3.8c-0.8,1.4-1.7,2.1-3.2,2.6c-0.1-1.1,0-2.6,0.5-4
		c-1.1,1.1-2.1,1.5-3.4,1.7c-0.1-1.4,0.2-2.6,0.9-4.1c-0.8,1-2.5,1.7-3.8,1.8c0.1-1.2,0.9-2.8,1.4-3.7c-1.2,0.9-2.5,1.5-3.9,1.6
		c0.2-1.3,0.8-2.8,1.8-3.9c-1.2,0.9-3.1,1.4-4.4,1.2c0.3-1.5,1.2-2.9,2.5-3.7c-0.7,0.1-2,0.4-3.5,0.3c-0.9,2.9-1.3,6-1.4,9.2
		c-0.7-0.6-1.2-0.7-1.8-1.2c0.1,0.7,0.2,1.1,0.3,1.9c0.1,1.5,0.7,2.4,1.7,3c0,0.4,0.1,0.9,0.2,1.3c-0.7-0.5-1.7-0.7-2.9-0.7
		c0.8,2.5,1.9,2.7,3.3,2.9c0,0.2,0.1,0.5,0.2,0.7c-0.8-0.2-1.7-0.2-2.8,0.1c0.7,1.1,1.8,1.8,3.4,2.1c0,0,0,0,0,0
		c-1-0.1-2.1,0.1-3,0.5c1.2,1.1,2.5,1.5,3.6,1.4c0.1,0.2,0.1,0.3,0.2,0.5c-0.9,0.2-1.7,0.7-2.2,1.2c1,0.3,2,0.5,2.9,0.4
		c0,0,0,0,0,0.1c-0.5,0.4-1,1.1-1.3,2.1c0.7-0.2,1.4-0.2,2.1-0.4c0.1,0.3,0.3,0.5,0.4,0.8c-0.4,0.7-0.5,1.6-0.3,2.6
		c0.6-0.1,1.1-0.4,1.5-0.7c0.1,0.2,0.3,0.4,0.4,0.6c-0.1,1.1,0.1,2.3,0.8,3c0.3-0.3,0.5-0.6,0.7-0.9c1.5-2.2,0.6-3.8,0.6-5.3
		c0,0,0-0.1,0-0.1c0.1,1.7,1.6,3.4-0.1,5.5c0,0-0.1,0.1-0.1,0.1C36.2,83,45,87.4,54.8,87.4c13.9,0,25.8-8.8,30.4-21.2l1.5-0.6
		l-0.1,0.6l2.1-1.8L86,65l0.6,0.3l-1.1,0.5c0.2-0.6,0.4-1.1,0.6-1.7l1.6-0.9l-0.1,0.7l1.9-2l-2.7,0.8l0.6,0.2l-1.3,0.7
		c0.2-0.6,0.3-1.3,0.5-1.9l1.2-0.8l-0.1,0.7L89.7,59.4L89.7,59.4z"/>
	<path class="st1" d="M74.9,69.7c0.1,0,0.3,0,0.5,0c0.2,0.1,0.4,0.2,0.4,0.3c0,0.2-0.1,0.8-0.5,0.8c-0.4,0.1-0.4-0.1-0.9-0.1
		c0.3,0.1,0.7,0.4,0.5,0.7c-0.1,0.1-0.2,0.3-0.4,0.5c-0.1,0.2-0.4,0.1-0.6,0c-0.2-0.1-0.3-0.2-0.5-0.3c0.1,0.1,0.2,0.3,0.2,0.4
		c0.1,0.2,0.1,0.5-0.1,0.6c-0.2,0.1-0.5,0.2-0.7,0.2c-0.3,0-0.4-0.3-0.5-0.5c0-0.2,0-0.4,0-0.6c-0.2,0.1-0.4,0.7-0.1,1.2
		c0.1,0.2,0.5,0.3,1.1,0.1c0.3-0.1,0.6-0.2,0.5-0.6c0-0.1-0.1-0.2-0.1-0.3c0.1,0.1,0.1,0.2,0.2,0.2c0.2,0.1,0.5,0,0.8-0.3
		c0.3-0.4,0.3-0.6,0.2-0.7c0-0.1-0.1-0.2-0.2-0.2c0.2,0.1,0.3,0,0.4,0c0.3,0,0.4-0.2,0.5-0.6c0.1-0.4,0.2-0.6,0-0.8
		c-0.1-0.1-0.3-0.2-0.5-0.2l9.4-7.4l0,0.7l1.7-2.2L84,61.5l0.6,0.2l-9.5,7.5l0,0l-0.2,0.2c0,0,0,0,0,0"/>
	<polyline class="st1" points="74.7,68.9 80.6,57 80.9,57.6 81.5,54.8 79.6,56.9 80.3,56.8 74.4,68.7 	"/>
	<path class="st1" d="M73.2,70.2c0.2,0.3,0.2,0.8,0.1,1.1c0.6-0.1,0.7-0.7,0.8-1C73.9,70.1,73.5,70.1,73.2,70.2L73.2,70.2z"/>
	<path class="st1" d="M73.1,70.3c-0.4,0-0.5-0.2-0.6-0.4c-0.1-0.2-0.3-0.3-0.3,0c0,0.3,0,0.4,0.1,0.5C72.6,70.4,72.8,70.4,73.1,70.3
		L73.1,70.3z"/>
	<path class="st1" d="M73.1,71.4c-0.1-0.2-0.2-0.4-0.2-0.6c-0.1,0.1-0.2,0.6-0.2,0.9c0,0.1,0,0.1,0.2,0.1c0.2,0,0.4-0.1,0.6-0.2
		C73.4,71.6,73.2,71.6,73.1,71.4L73.1,71.4z"/>
	<path class="st1" d="M80.3,58.9l0.7,0l-3.7,5.6c-0.4,0.9-0.9,1.7-1.2,2.5c0,0,0,0,0.1-0.1l5.1-7.8l0.2,0.6l0.9-2.7L80.3,58.9
		L80.3,58.9z"/>
	<path class="st1" d="M78.9,63.8l6.7-8.5l0.2,0.6l1.1-2.6l-2.2,1.7l0.7,0l-6.1,7.7c-0.5,0.7-1,1.5-1.5,2.2l0,0
		C78.2,64.6,78.6,64.2,78.9,63.8L78.9,63.8z"/>
	<path class="st1" d="M78.1,66.3c0.6-0.4,1.1-0.9,1.7-1.4l5.6-5.2l0.1,0.6l1.5-2.4l-2.5,1.3l0.6,0.1l-5.6,5.2
		C79.1,65.3,78.6,65.8,78.1,66.3L78.1,66.3z"/>
	<path class="st1" d="M84.3,65.1l-7.8,3.9c-0.1,0.1-0.2,0.2-0.3,0.3c0.1,0,0.1,0.1,0.1,0.1c0,0,0,0,0,0.1l8.1-4.1l-0.1,0.6l2.1-1.9
		l-2.7,0.6L84.3,65.1L84.3,65.1z"/>
	<path class="st1" d="M72.5,73.4c-0.1,0-0.2-0.1-0.3-0.2l-1.4,2.9l0,0l-0.5,0.2l-1.7,3.2l0.8-0.2l0.3,0.8l1.6-3.2l-0.2-0.5
		L72.5,73.4L72.5,73.4z"/>
	<path class="st1" d="M77.9,67.9c0.5-0.3,1.2-0.6,1.8-0.9l5.2-3.4l0,0.7l1.9-2.1l-2.7,0.9l0.6,0.2L79.1,67
		C78.7,67.3,78.3,67.6,77.9,67.9L77.9,67.9z"/>
	<path class="st1" d="M71.8,72.7c0-0.2-0.1-0.3,0-0.5l-1.9,2l-0.5,0l0,0l0,0l-2.6,2.6l0.1,0l0,0l0,0l0.6,0l0.1,0.6l2.1-2.8l0.4-0.1
		L71.8,72.7L71.8,72.7z"/>
	<path class="st1" d="M75.3,68.6c0.2-0.2,0.6-0.4,1-0.8l9.2-10l0.1,0.6l1.3-2.5l-2.4,1.5l0.6,0.1l-9.6,10.5
		C75.4,68.3,75.3,68.5,75.3,68.6L75.3,68.6z"/>
	<path class="st1" d="M67.1,75.5l3.4-2.4c0.4-0.4,0.8-0.9,1-1.1l-4.3,2.8l0,0l-0.5-0.1l-0.3,0.2l-2.7,1.7l0.8,0.2l0.1,0.6l2.2-1.9
		L67.1,75.5L67.1,75.5z"/>
	<path class="st1" d="M64.2,75.8l1.4-0.9l1.3-0.9l0.4,0.1c0,0,3.1-1.9,3.9-2.4c0,0,0.1,0,0.1,0h0c0,0,0,0,0,0l-4.1,2l-0.5-0.2
		l-3.2,1.5l0.7,0.3L64.2,75.8L64.2,75.8z"/>
	<path class="st1" d="M34.5,69.7c-0.4-0.1-1.1,0-1.2,0.2c-0.2,0.3-0.1,0.4,0,0.8c0.1,0.4,0.2,0.6,0.5,0.6c0.1,0,0.2,0,0.4,0
		c-0.1,0.1-0.1,0.1-0.2,0.2c0,0.1-0.1,0.3,0.2,0.7c0.3,0.4,0.6,0.5,0.8,0.4c0.1-0.1,0.2-0.2,0.3-0.2c0,0.1-0.1,0.2-0.1,0.3
		c-0.1,0.4,0.2,0.5,0.5,0.6c0.6,0.2,0.9,0.2,1.1-0.1c0.3-0.5,0.2-1.1,0-1.2c0,0.2,0,0.4,0,0.6c0,0.2-0.1,0.5-0.5,0.4
		c-0.2,0-0.5-0.1-0.7-0.2c-0.1-0.1-0.1-0.3-0.1-0.6c0-0.1,0.1-0.3,0.2-0.4c-0.2,0-0.3,0.2-0.5,0.3c-0.2,0.1-0.4,0.2-0.6,0
		c-0.2-0.2-0.3-0.3-0.3-0.5c-0.1-0.3,0.3-0.6,0.5-0.7c-0.4,0-0.5,0.2-0.9,0.1c-0.4-0.1-0.4-0.6-0.4-0.8c0-0.1,0.2-0.3,0.4-0.3
		c0.2,0,0.4,0,0.6,0"/>
	<path class="st1" d="M26.4,66C26.5,66,26.5,66,26.4,66c-1-0.6-1.7-0.8-3-0.6C24.6,65.5,25.5,65.7,26.4,66L26.4,66z"/>
	<path class="st1" d="M27,72.9c0.1-0.9,0.8-2.1,1.7-2.8c0.6-0.5,1-0.7,0.5-0.2C28.3,70.7,27.4,72.1,27,72.9L27,72.9z"/>
	<path class="st1" d="M29,75.4c-0.4-0.9,0-2.3,0.3-3.2c0.3-0.6,0.9-1.6,1.1-1.7C29.7,71.6,29,74.6,29,75.4L29,75.4z"/>
	<path class="st1" d="M26.1,63.1c-0.1-0.3-0.4-0.5-0.7-0.5c-0.3,0.1-0.6,0.4-0.5,0.7c0.1,0.3,0.4,0.6,0.7,0.5
		C25.9,63.8,26.1,63.4,26.1,63.1L26.1,63.1z"/>
	<path class="st1" d="M31.4,63.9c0-0.9-0.1-1.9,0-3c-1.8,1.3-2.5,3.7-1.7,5.3c-0.1,0-0.2,0-0.2,0c-0.3,0.1-0.6,0.4-0.5,0.8
		c0.1,0.3,0.4,0.6,0.8,0.5c0.3-0.1,0.6-0.4,0.5-0.8c0-0.2-0.1-0.3-0.3-0.4c-0.3-1.5-0.1-3.3,0.7-4c-0.2,0.9-0.7,2.8-0.4,4.6
		c0.3-0.3,0.5-0.7,0.7-1c0,0.3,0.1,0.6,0.2,0.9c0-1.4,0.5-2.8,2-3.8c-1.1,1.3-1.7,2.9-1.8,4.1c0.8-1,2.5-1.3,2.7-5.1
		C33.1,62.3,32,63,31.4,63.9L31.4,63.9z"/>
	<path class="st1" d="M32.6,67.9c-0.1-0.4-0.4-0.6-0.8-0.5c-0.4,0.1-0.6,0.4-0.5,0.8c0.1,0.4,0.4,0.6,0.8,0.5
		C32.5,68.6,32.7,68.3,32.6,67.9L32.6,67.9z"/>
	<path class="st1" d="M32.4,69.9c-0.1-0.4-0.4-0.6-0.8-0.5c-0.4,0.1-0.6,0.4-0.5,0.8c0.1,0.4,0.4,0.6,0.8,0.5
		C32.3,70.6,32.5,70.3,32.4,69.9L32.4,69.9z"/>
	<path class="st1" d="M28.5,60c-1.4,1.1-1.7,2.6-1.6,3.8c-0.1,0-0.1,0-0.2,0c-0.3,0.1-0.5,0.3-0.4,0.6c0.1,0.3,0.3,0.5,0.6,0.4
		c0.1,0,0.1,0,0.2-0.1c0.1,0.4,0.3,0.7,0.5,1c-0.1-0.4-0.2-0.9-0.3-1.4c0-0.1,0-0.1,0-0.2c0,0,0,0,0,0c-0.1-1.1,0.1-2.2,0.7-3
		c-0.2,1.2-0.5,3.4-0.2,4.8C28.3,64.6,30.4,63.9,28.5,60L28.5,60z"/>
	<path class="st1" d="M34,68.8c-0.1-0.3-0.3-0.5-0.6-0.4c-0.3,0.1-0.5,0.3-0.4,0.6c0.1,0.3,0.3,0.5,0.6,0.4
		C33.9,69.4,34,69.1,34,68.8L34,68.8z"/>
	<path class="st1" d="M31.1,68.7c-0.1-0.3-0.3-0.4-0.6-0.4c-0.3,0.1-0.4,0.3-0.4,0.6c0.1,0.3,0.3,0.4,0.6,0.4
		C31,69.2,31.2,69,31.1,68.7L31.1,68.7z"/>
	<path class="st1" d="M24.5,62.1c0-0.2-0.2-0.4-0.4-0.4c-0.7-0.9-1.6-1.9-3.3-2.1c0.9,0.4,2.2,1.2,3.1,2.1c-0.2,0.1-0.4,0.3-0.3,0.5
		c0,0.2,0.3,0.4,0.5,0.4C24.4,62.6,24.6,62.4,24.5,62.1L24.5,62.1z"/>
	<path class="st1" d="M24.6,59.1c-0.1-0.3-0.4-0.5-0.7-0.4c0,0,0,0,0,0c-0.4-1.4-0.7-2.5-2.3-3.7c0.8,1,1.8,2.6,2.3,3.7
		c-0.2,0.1-0.4,0.4-0.3,0.6c0.1,0.3,0.4,0.5,0.7,0.4C24.4,59.7,24.6,59.4,24.6,59.1L24.6,59.1z"/>
	<path class="st1" d="M26.2,64.7c0-0.2-0.3-0.4-0.5-0.4c-0.1,0-0.2,0.1-0.3,0.2c-1.4-1.3-2.4-1.3-3.2-1.3c0.5,0.2,2.1,0.6,3.1,1.4
		c0,0.1-0.1,0.2,0,0.3c0,0.2,0.3,0.4,0.5,0.4C26.1,65.1,26.3,64.9,26.2,64.7L26.2,64.7z"/>
	<path class="st1" d="M27.4,66.5c-0.1-0.3-0.4-0.6-0.8-0.5c-0.3,0.1-0.6,0.4-0.5,0.8c0.1,0.3,0.4,0.6,0.8,0.5
		C27.3,67.2,27.5,66.8,27.4,66.5L27.4,66.5z"/>
	<path class="st1" d="M28.3,67.6c0-0.2-0.3-0.4-0.5-0.4c-0.2,0-0.3,0.1-0.3,0.3c-1.3-0.2-2.6,0-3.8,0.6c1.3-0.3,2.6-0.6,3.7-0.6l0,0
		c0,0.1,0,0.1,0,0.2c0,0.2,0.3,0.4,0.5,0.4C28.2,68,28.4,67.8,28.3,67.6L28.3,67.6z"/>
	<path class="st1" d="M29.6,68.3c-0.1-0.3-0.4-0.5-0.7-0.5c-0.3,0.1-0.5,0.4-0.5,0.7c0,0,0,0,0,0c-0.9,0-2.5,0.2-3.4,1.3
		c1-0.6,2.5-1.2,3.4-1.3c0,0,0,0,0,0c0.1,0.3,0.4,0.5,0.7,0.4C29.5,68.9,29.7,68.6,29.6,68.3L29.6,68.3z"/>
	<path class="st1" d="M25.3,62.3c-0.3-1,0.4-3.8,1.3-4.4C26,59.2,25.8,60.5,25.3,62.3L25.3,62.3z M27.3,57c-2.1,0.9-3.1,3.5-2,5.4
		C26.3,61,28.1,60.7,27.3,57L27.3,57z"/>
	<path class="st1" d="M25.2,53.1c-0.7,0.3-1.6,1.2-2,2.4c0.2,0.2,0.3,0.4,0.4,0.6c0.2-0.9,0.7-1.9,1.2-2.4c-0.3,0.6-0.8,1.8-1,2.8
		c0.2,0.6,0.3,1.1,0.3,1.7C25.4,57,25.8,55,25.2,53.1L25.2,53.1z"/>
	<path class="st1" d="M37.7,71.2c2.6,2,4.1,4.7,4.5,7c-0.3-0.2-1-0.5-1.3-0.4c-0.3-2.3-1.6-4.2-3.5-5.8
		C37.5,71.6,37.6,71.4,37.7,71.2L37.7,71.2z"/>
	<path class="st1" d="M35.3,70.5c0.2-0.2,0.6-0.3,0.9-0.1c-0.2,0.3-0.2,0.8-0.1,1.1C35.4,71.5,35.3,70.9,35.3,70.5L35.3,70.5z"/>
	<path class="st1" d="M36.2,70.5c0.4,0,0.5-0.2,0.6-0.4c0.1-0.2,0.3-0.3,0.3,0c0,0.3,0,0.4-0.1,0.5C36.8,70.6,36.5,70.7,36.2,70.5
		L36.2,70.5z"/>
	<path class="st1" d="M36.4,71.1c0,0.2-0.1,0.4-0.2,0.6c-0.1,0.1-0.2,0.2-0.3,0.3c0.2,0.1,0.4,0.2,0.6,0.2c0.2,0,0.2,0,0.2-0.1
		C36.6,71.7,36.5,71.2,36.4,71.1L36.4,71.1z"/>
</g>
</svg>
